Patient4_TMGait_0pt6_01_right_14_EMG.mot
version=1
nRows=36
nColumns=33
inDegrees=no
endheader
time	1LAddLong	2LGlutMax	3LGlutMed	4LIliopsoas	5LSemiMemb	6LBicFemLong	7LRecFem	8LVastMed	9LVastLat	10LGasMed	11LTibAnt	12lTibPost	13LPeroneusLong	14LSol	15LExtDigLong	16LFlexDigLong	17RAddLong	18RGlutMax	19RGlutMed	20RIliopsoas	21RSemiMemb	22RBicFemLong	23RRecFem	24RVastMed	25RVastLat	26RGasMed	27RTibAnt	28RTibPost	29RPeroneusLong	30RSol	31RExtDigLong	32RFlexDigLong
17.27	-0.019226	0.18555	0.013275	-0.013733	-0.026093	0.77957	-0.007782	0.007019	-0.096283	0.001678	0.014343	0.006866	-0.078583	-0.045776	0.074463	0.019836	0.059662	-0.23025	-0.11185	0.006256	0.044708	-0.12695	-0.12299	-0.075836	-0.00473	-0.006409	0.09903	-0.013733	-1.0143	-0.1947	-0.001068	-0.018463
17.271	-0.015106	0.23499	-0.050507	0.021515	-0.081635	0.70099	0.007324	0.010223	-0.019379	0.002136	-0.009613	0.001526	-0.061493	-0.005493	0.063324	0.020905	0.034943	-0.24262	-0.16769	-0.078125	-0.1326	-0.059509	-0.15549	-0.06012	-0.059357	0.000458	0.1001	-0.029602	-0.98404	-0.15808	0	-0.012817
17.272	-0.013123	0.23651	-0.083923	0.041199	-0.095062	0.45853	0.099182	0.012817	0.001984	0.002441	-0.015106	0.005493	-0.074615	-0.004272	0.042114	0.001831	-0.013428	-0.22659	-0.1973	-0.097656	-0.11093	-0.11261	-0.13504	0.041351	-0.022888	-0.015411	0.03952	-0.010529	0.33264	-0.18265	-0.000305	-0.017853
17.273	-0.012817	0.1503	-0.024872	0.043335	-0.090637	-0.028534	0.078278	0.010681	0.10101	0.00946	0.013885	0.007019	-0.085602	0.01297	0.01358	0.019073	0.01297	-0.21103	-0.18097	-0.04837	-0.001526	-0.053558	-0.098114	0.093231	0.020599	0.001526	0.017853	0.0177	0.36438	-0.33417	-0.002899	-0.01297
17.274	-0.011444	0.092316	0.05661	0.024414	-0.036621	-0.22903	0.059052	0.009918	0.13092	0.003967	0.045013	0.001984	-0.074921	0.003815	0.00351	0.013885	0.020142	-0.18585	-0.21942	0.005646	0.12909	0.002594	-0.07782	-0.00946	0.05188	0.00824	-0.02182	-0.00412	0.85419	-0.33997	-0.003967	-0.013428
17.275	-0.013885	0.080261	0.04425	0.013733	-0.024567	-0.58212	0.076752	0.007782	0.086975	0.000153	0.039978	0.010986	-0.048218	0.015564	-0.010529	0.003204	0.005188	-0.16052	-0.15701	0.065765	0.11704	0.049591	-0.11566	0.068665	0.09552	-0.00061	-0.02121	-0.39307	0.77652	-0.12497	-0.001068	-0.023041
17.276	-0.015564	0.083008	0.10574	-0.010223	0.010681	-0.80566	0.059357	0.015869	0.042877	0.018005	0.011597	0.005646	-0.090637	0.023956	0.00412	0.021973	-0.041809	-0.17456	-0.1622	0.10681	0.16922	0.041656	-0.11475	0.13077	0.055847	-0.011292	0.038452	0.097351	0.075989	-0.1474	-0.003052	-0.023499
17.277	-0.025024	0.04837	0.095062	-0.011444	0.027008	-0.94971	-0.00061	0.023346	0.04364	0.021973	-0.037842	-0.003967	-0.21271	0.017242	0.008392	0.020752	-0.010071	-0.24948	-0.17624	0.035553	0.10193	0.028229	-0.05722	0.050049	0.010376	-0.010834	0.052948	0.26306	-0.1712	0.03891	-0.001373	-0.031738
17.278	-0.044556	0.093384	0.081482	0.010986	-0.053101	-0.95596	-0.033722	0.021362	0.11505	0.021515	-0.071259	0.008392	0.018158	0.031586	0.016022	0.017853	0.006714	-0.25818	-0.22751	0.025787	-0.056915	0.077972	-0.084534	0.002594	-0.041046	0.004425	0.047302	0.074768	-0.56702	0.5574	-0.000305	-0.029144
17.279	-0.063324	0.1265	0.050049	0.02594	-0.12116	-0.56885	-0.066528	0.025787	0.11704	0.014648	-0.1178	0	0.23071	0.046844	-0.002136	0.017242	0.019379	-0.20874	-0.21378	-0.047913	0.017548	0.053101	-0.083923	0.019531	-0.007477	0.00412	0.037842	0.01297	-0.48843	0.29816	-0.002441	-0.036011
17.28	-0.057068	0.14771	0.018463	0.027618	-0.14984	-0.31998	-0.10834	0.010223	0.12985	0.004425	-0.11276	0	0.2861	0.034943	-0.018768	0.018005	0.03418	-0.16327	-0.22949	-0.092316	0.033569	0.009766	-0.067749	0.048828	0.026855	0.005035	-0.00946	0.041046	-0.20767	0.13809	-0.003204	-0.031433
17.281	-0.025635	0.11963	-0.012207	0.011139	-0.094147	-0.22293	-0.058746	-0.005341	0.19623	-0.0177	-0.059204	0.010071	0.42709	0.034943	-0.005188	0.017395	0.035706	-0.13855	-0.20798	-0.088959	0.060272	-0.067139	-0.055542	0.021667	0.014648	0.005188	-0.044403	0.012817	-0.06546	0.25909	0.000763	-0.030975
17.282	0.007629	0.057526	-0.013275	0.013733	0.048523	-0.12955	-0.036316	-0.019226	0.22522	-0.030518	0.1152	-0.005341	0.006409	0.032349	0.016479	0.019684	0.032654	-0.2124	-0.11368	-0.12787	0.089569	-0.052795	-0.084839	-0.040894	0.018311	-0.001221	-0.058136	0.00061	-0.084839	0.2066	-0.003052	-0.023804
17.283	0.010986	0.068512	-0.031586	0.013885	0.19592	-0.054169	0.035248	-0.034332	0.17212	0.034485	0.14893	0.007477	-0.20218	0.028992	0.002136	0.012207	0.026093	-0.17792	-0.090942	-0.054932	0.068665	-0.21225	-0.058594	-0.015869	0.007172	-0.005188	0.00824	-0.039063	-0.054474	0.01709	-0.006256	-0.023346
17.284	-0.019073	0.07782	-0.042725	0.018005	0.19226	0.087585	0.11841	-0.018921	-0.05249	0.02655	0.05722	-0.006866	-0.11978	0.005951	-0.026703	0.019989	-0.022888	-0.13825	-0.060577	0.1326	-0.023956	-0.17303	-0.11429	0.044403	0.041046	-0.010223	0.030518	-0.24628	0.080872	-0.12329	-0.001221	-0.02533
17.285	0.010681	0.13336	-0.019226	0.011749	0.13519	0.21652	0.15152	-0.013123	-0.21347	0.010834	-0.047455	0.003357	-0.065613	0.032959	-0.006104	0.024872	-0.054932	-0.14313	-0.10178	0.23117	-0.12009	-0.085449	-0.16754	0.10498	0.066071	-0.007935	-0.077209	-0.061798	0.2446	-0.16098	0.000153	-0.02533
17.286	-0.023193	0.15488	-0.019073	0.007477	0.06485	0.23911	0.1265	-0.010529	-0.16525	0.002747	-0.061951	0.026398	-0.058594	0.020752	-0.004425	0.022583	-0.01709	-0.18433	-0.086517	0.19089	-0.031128	-0.12512	-0.13657	-0.072174	0.024261	-0.00885	-0.003815	0.29465	0.090637	-0.00946	-0.002136	-0.017395
17.287	-0.004272	0.1738	-0.021973	0.000458	0.027466	0.26184	0.063324	-0.008698	-0.11276	0.027161	-0.042114	0.007324	-0.039825	0.010071	-0.054474	0.033417	-0.00824	-0.15381	-0.11414	0.23117	-0.037079	-0.014954	-0.11963	-0.078125	0.04837	0.000763	0.21683	0.074768	0.19974	0.16861	-0.008087	-0.016632
17.288	0.015259	0.11444	-0.055389	0.002289	0.030518	0.24704	0.081787	-0.006714	-0.24506	0.020447	-0.003204	0.014496	-0.078125	0.033417	-0.078583	0.040283	-0.006104	-0.12909	-0.075378	0.1741	0.010223	0.086365	-0.10498	-0.050964	0.031128	0.007629	0.30456	-0.001984	0.61432	0.039063	0.000458	-0.023041
17.289	0.010071	0.14114	-0.050049	0.010223	0.027618	-0.013123	0.11002	-0.006256	-0.29541	0.028229	0.14587	0.011597	-0.091553	0.013123	-0.070801	0.051727	0.008087	-0.13916	-0.089874	0.050201	0.040588	0.14603	-0.028839	-0.023956	0.012817	0.011444	0.035706	-0.018005	0.76523	-0.12695	-0.00061	-0.023193
17.29	-0.001984	0.12863	-0.022125	-0.001068	0.014038	-0.090637	0.12421	-0.001068	-0.25681	0.04364	0.29495	0.009308	-0.11978	0.020599	0.037994	0.06073	0.025177	-0.11261	-0.12756	-0.011444	0.015106	0.27939	-0.012054	-0.054474	0.002441	0.011902	0.060883	-0.016479	-1.4063	-0.10986	-0.003357	-0.018311
17.291	-0.007782	0.12405	-0.057983	0.005341	-0.006409	-0.016327	0.10162	0.018463	-0.16739	0.050049	0.40359	0.012817	-0.10483	0.04715	0.095978	0.084076	0.018768	-0.11108	-0.13443	-0.000916	0.005188	0.40451	0.005493	0.021362	-0.007629	0.021667	0.03952	-0.020599	-2.3715	-0.058594	-0.006866	-0.018005
17.292	0.011749	0.10513	-0.092621	0.007782	-0.086975	-0.023193	0.10788	0.03418	-0.12009	0.065613	0.35065	0.009766	-0.1091	0.056915	0.07019	0.081024	0.006409	-0.16449	-0.13977	-0.064545	0.089111	0.27252	0.014648	-0.015411	0.010376	0.025787	0.036316	-0.032654	-1.5979	-0.036316	-0.001068	-0.025024
17.293	0.02655	0.10696	-0.015564	-0.004272	-0.11566	-0.049744	0.080566	0.045319	-0.076599	0.062256	0.03479	0.007782	-0.071869	0.070038	0.16525	0.081482	-0.007324	-0.11368	-0.15259	-0.13641	0.19058	0.12253	0.041046	0.023346	0.015717	0.010986	-0.008545	-0.028687	-0.327	-0.055695	-0.001068	-0.016479
17.294	0.034027	0.066071	0.070496	-0.002289	-0.054474	-0.20615	0.027313	0.039215	-0.025482	0.048828	-0.21316	0.014801	0.059509	0.080719	0.40787	0.081177	-0.007629	-0.10895	-0.13763	-0.20142	0.062714	0.1474	-0.035858	0.083008	0.046539	-0.027771	-0.077057	-0.002747	0.036926	-0.10056	-0.005035	-0.020142
17.295	0.039978	0.012512	0.06012	0.016937	-0.023193	-0.28214	0.006714	0.031128	0.07019	0.044403	-0.30792	0.003052	0.14847	0.1088	0.29373	0.079193	-0.013733	-0.15335	-0.15182	-0.17242	0.082245	0.13916	0.015564	0.023804	0.031281	-0.040741	0.0177	0.03067	0.11475	-0.056458	0.001373	-0.022583
17.296	0.027771	0.025635	0.036011	0.025635	-0.002136	-0.25711	-0.13886	-0.000763	0.16403	0.056152	-0.17914	0.014191	0.11124	0.1471	0.16464	0.080414	-0.019836	-0.13672	-0.15427	-0.059052	0.093842	0.12146	-0.014343	0.028381	0.014038	-0.040741	-0.010681	-0.11948	1.2152	0.019684	-0.001984	-0.035706
17.297	0.007324	0.032806	0.028076	0.010376	-0.037079	-0.14297	-0.15717	-0.048523	0.22064	0.088348	0.084534	0.005646	-0.002899	0.1355	-0.064087	0.06073	-0.027008	-0.11917	-0.11185	-0.036011	0.088196	0.10239	-0.038605	0.02594	0.016632	-0.029907	-0.06073	-0.33615	1.4078	-0.098572	0.001221	-0.032043
17.298	0.014191	0.05661	-0.006104	0.007782	-0.036469	0.009003	-0.084686	-0.0177	0.099945	0.063324	0.26718	0.007782	-0.010071	0.12054	0.40161	0.0737	-0.000916	-0.13931	-0.13977	-0.095062	0.10544	-0.01236	-0.029144	0.02655	0.026398	-0.021057	-0.075684	0.18982	0.96664	-0.43732	-0.008087	-0.02533
17.299	0.020752	0.074158	-0.054169	-0.014191	-0.056915	0.079346	-0.033112	-0.012054	-0.056915	0.054932	0.01297	0.01236	0.039215	0.12985	0.30426	0.070496	0.003052	-0.075684	-0.20035	-0.11154	0.13031	-0.11276	-0.007629	-0.015411	0.020294	-0.050049	-0.14389	0.05127	1.4763	-0.46127	-0.004883	-0.025635
17.3	0.021362	0.068665	-0.043335	0.00824	0.015869	0.084229	-0.009613	-0.01297	-0.002441	0.065613	-0.32791	-0.002899	0.048676	0.12314	-0.74066	0.063782	0.012054	-0.067902	-0.13763	-0.024109	0.089569	-0.18158	-0.015106	0.035095	0.01358	-0.018921	-0.13779	0.029755	1.4638	0.00824	-0.000305	-0.027008
17.301	0.015869	0.028381	-0.029297	0.021667	0.15289	0.016632	0.085449	-0.021973	0.049896	0.071564	-0.35797	0.012512	0.059052	0.087433	-1.075	0.062561	0.000916	-0.11169	-0.059662	0.097656	0.06424	-0.16449	-0.053253	0.047913	0.015411	0.014343	0.001373	0.052643	-0.084229	0.4361	-0.001068	-0.021515
17.302	0.001984	-0.036469	-0.065613	0.036011	0.13397	-0.16464	0.16144	-0.024109	0.077667	0.08316	-0.22629	-0.009308	0.012665	0.026398	-0.87006	0.06073	0.009308	-0.13458	-0.045166	0.13138	0.047455	-0.17532	-0.029907	0.005951	0.04425	0.048218	-0.0177	0.004883	-0.98358	0.62042	-0.004883	-0.017395
17.303	0.000153	0.006561	0.072174	0.031891	0.11414	-0.35461	0.15991	-0.015564	-0.024109	0.098877	-0.1207	0.00061	-0.035248	0.030212	-0.4306	0.055389	-0.018005	-0.1796	-0.041199	0.159	-0.00061	-0.13077	-0.050812	-0.060425	0.016785	0.034027	0.009613	-0.001373	-1.1787	0.27985	0.002594	-0.019531
17.304	0.007477	0.028381	-0.00061	0.001526	0.04425	-0.35828	0.10498	0.005798	-0.13245	0.099945	-0.092926	0.014496	-0.061493	-0.016785	-0.12543	0.058899	-0.006104	-0.16403	-0.14877	0.16144	-0.018005	-0.033722	-0.051117	-0.046692	0.007172	0.020599	0.002441	-0.0177	-0.69595	0.46478	-0.001221	-0.01236
17.305	-0.00412	0.084534	0.072784	0.008545	-0.009003	-0.43198	0.065155	0.007172	-0.26657	0.096436	-0.085602	-0.002289	-0.047455	-0.002136	-0.003204	0.049133	-0.005493	-0.11871	-0.13855	-0.001068	0.009613	0.034332	-0.056305	-0.034485	0.007172	0.00412	-0.007477	-0.026093	-0.48981	0.48874	-0.002441	-0.020447
